<?xml version="1.0" encoding="UTF-8" standalone="no"?>
<svg
   width="155"
   height="35"
   viewBox="0 0 155 35"
   fill="none"
   version="1.1"
   id="svg1"
   sodipodi:docname="Stroke 1.svg"
   xml:space="preserve"
   inkscape:version="1.4 (e7c3feb100, 2024-10-09)"
   xmlns:inkscape="http://www.inkscape.org/namespaces/inkscape"
   xmlns:sodipodi="http://sodipodi.sourceforge.net/DTD/sodipodi-0.dtd"
   xmlns="http://www.w3.org/2000/svg"
   xmlns:svg="http://www.w3.org/2000/svg"><defs
     id="defs1" /><sodipodi:namedview
     id="namedview1"
     pagecolor="#ffffff"
     bordercolor="#000000"
     borderopacity="0.25"
     inkscape:showpageshadow="2"
     inkscape:pageopacity="0.0"
     inkscape:pagecheckerboard="0"
     inkscape:deskcolor="#d1d1d1"
     inkscape:zoom="77.648108"
     inkscape:cx="9.6267639"
     inkscape:cy="3.567376"
     inkscape:window-width="1916"
     inkscape:window-height="1037"
     inkscape:window-x="0"
     inkscape:window-y="0"
     inkscape:window-maximized="1"
     inkscape:current-layer="svg1" /><path
     d="M 12.7398,28.8808 1.91267,15.2967 12.7475,1.5 H 137.393 l 11.19,13.7815 -11.374,13.3767 z M 137.243,1.31517 l 0.001,0.00131 c 0,-4.4e-4 -0.001,-8.8e-4 -0.001,-0.00133 l 0.388,-0.315154 z M 137.06,28.834 c 0,-5e-4 0,-9e-4 0.001,-0.0013 l -0.001,0.0013 0.38,0.3238 z"
     stroke="#391215"
     stroke-width="3"
     id="path1-2"
     style="display:none;fill:none"
     transform="translate(1.7334316,1.8911116)"
     inkscape:label="inner" /><path
     d="M 13.5382,2.45593 2.30894,16.7549 c -0.71593,0.9116 -0.71129,2.1958 0.01118,3.1023 L 13.5442,33.9394 c 0.4754,0.5964 1.1969,0.9432 1.9595,0.9418 L 140.445,34.6578 c 0.732,-0.0013 1.426,-0.3231 1.9,-0.8806 l 11.792,-13.869 c 0.78,-0.9173 0.796,-2.2604 0.037,-3.1952 L 142.572,2.42419 C 142.097,1.8395 141.384,1.5 140.631,1.5 H 15.5044 c -0.936128,-0.063524 -1.442654,0.31619 -1.9662,0.95593 z"
     stroke="#391215"
     stroke-width="3"
     id="path1-5"
     style="display:inline;fill:none"
     transform="translate(-1.2535421,-1.1906021)"
     inkscape:label="outer"
     sodipodi:nodetypes="ccccccccccssc" /><path
     d="M 2.48865,16.6813 13.7179,2.38237 C 13.9075,2.14097 14.1974,2 14.5044,2 H 139.631 c 0.301,0 0.586,0.1358 0.776,0.36967 l 11.602,14.28883 c 0.304,0.3739 0.298,0.9111 -0.014,1.2781 l -11.793,13.869 c -0.189,0.223 -0.467,0.3517 -0.76,0.3522 L 14.501,32.3812 c -0.305,5e-4 -0.5936,-0.1382 -0.7838,-0.3767 L 2.49312,17.9222 C 2.20413,17.5597 2.20227,17.046 2.48865,16.6813 Z"
     stroke="#fc5548"
     stroke-width="4"
     id="path1"
     style="display:none" /><g
     style="fill:none"
     id="g1"
     transform="translate(-1.2535421,-1.1906021)" /><g
     style="fill:none"
     id="g2"
     transform="translate(1.7334316,1.8911116)" /></svg>
